<?xml version="1.0" encoding="utf-8"?>
<!-- Uploaded to: SVG Repo, www.svgrepo.com, Generator: SVG Repo Mixer Tools -->
<svg width="800px" height="800px" viewBox="0 0 1024 1024" class="icon"  version="1.1" xmlns="http://www.w3.org/2000/svg"><path d="M512 832C246.656 832 74.026667 535.210667 66.816 522.581333a21.354667 21.354667 0 0 1-0.042667-21.12C73.941333 488.874667 245.312 192 512 192c265.322667 0 437.973333 296.789333 445.184 309.418667a21.290667 21.290667 0 0 1-0.042667 21.226666C949.888 535.274667 775.957333 832 512 832z" fill="#E6E6E6" /><path d="M512 512m-234.666667 0a234.666667 234.666667 0 1 0 469.333334 0 234.666667 234.666667 0 1 0-469.333334 0Z" fill="#43A6DD" /><path d="M512 512m-128 0a128 128 0 1 0 256 0 128 128 0 1 0-256 0Z" fill="#444444" /><path d="M416 437.333333m-53.333333 0a53.333333 53.333333 0 1 0 106.666666 0 53.333333 53.333333 0 1 0-106.666666 0Z" fill="#FFFFFF" /></svg>